<?xml version="1.0" encoding="utf-8"?>
<svg viewBox="-58.27 -115.558 1029.581 860.194" width="1029.581" height="860.194" xmlns="http://www.w3.org/2000/svg">
  <defs>
    <filter id="a">
      <feGaussianBlur stdDeviation="1.56589"/>
    </filter>
    <linearGradient id="d" x1="25.065" x2=".00379" y1="141.78" y2="142.44" gradientUnits="userSpaceOnUse">
      <stop offset="0.129" style="stop-color: rgb(144, 105, 56);"/>
      <stop offset="0.291" style="stop-color: rgb(255, 233, 176);"/>
      <stop offset="0.595" style="stop-color: rgb(255, 233, 176);"/>
      <stop offset="1" stop-color="#8d5c34"/>
    </linearGradient>
    <linearGradient id="c" x1="22.31" x2="320.71" y1="145.44" y2="135.02" gradientUnits="userSpaceOnUse">
      <stop offset="0" style="stop-color: rgb(146, 111, 67);"/>
      <stop offset="0.052" style="stop-color: rgb(255, 233, 176);"/>
      <stop offset="0.922" style="stop-color: rgb(255, 233, 176);"/>
      <stop offset="1" style="stop-color: rgb(146, 111, 67);"/>
    </linearGradient>
    <linearGradient id="b" x1="343.06" x2="316.2" y1="143.68" y2="143.91" gradientUnits="userSpaceOnUse">
      <stop offset="0.005" style="stop-color: rgb(148, 107, 74);"/>
      <stop offset="0.143" style="stop-color: rgb(146, 111, 67);"/>
      <stop offset="0.295" style="stop-color: rgb(255, 233, 176);"/>
      <stop offset="0.638" style="stop-color: rgb(255, 233, 176);"/>
      <stop offset="0.933" style="stop-color: rgb(146, 111, 67);"/>
      <stop offset="1" style="stop-color: rgb(141, 92, 52);"/>
    </linearGradient>
    <filter id="filter-1">
      <feGaussianBlur stdDeviation="2.73478"/>
    </filter>
  </defs>
  <g transform="matrix(2.985855, 0, 0, 2.985855, -53.628594, -109.59617)" style="">
    <path d="m12.58962,284.90557c2.268.396 4.68.396 7.632,0 2.88-.396 6.012-1.044 9.54-2.232l.324-3.815c3.42-.252 6.516-.36 9.864-.324 3.204.18 6.012.72 9.54.647 3.42-.18 8.208-.827 11.448-1.26 3.276-.252 5.832-.359 7.956-.324 .252-.54.252-1.764 0-3.815-.324-2.052-1.728-5.832-1.584-8.28 .18-2.304.936-4.212 2.556-5.724-.72,2.16-1.044,3.96-.972,5.399 .036,1.513.792,1.477 1.296,3.492 .468,2.124.756,5.004 1.26,8.928 3.096.072 6.552.288 10.512.648 3.888.504 7.308,1.728 13.032,1.584 5.616-.18 15.336-2.052 20.988-2.556 5.688-.36 9.756-.252 12.744.323 3.42.973 7.524,1.404 12.708,1.584 5.22.252 12.456-.287 17.82-.647 5.076-.396 7.2-.72 13.032-1.26 5.796-.36 15.805-.864 21.96-.937 6.12.108 9.9,1.404 14.652,1.26 4.716-.071 9.036-.756 13.356-1.907 .288-.9.611-1.836 1.26-3.204 .576-1.116 1.836-2.124 2.231-4.429 .288-2.304-.611-7.848-.323-9.54 .252-1.584.647-1.691 1.584-.323-.576,2.88-.469,5.328.323,7.632 .757,2.304 3.061,4.32 4.141,6.048 .899,1.872-.324,3.313 1.584,4.464 1.872,1.152 3.852,1.656 9.54,1.908 5.544.288 17.388-.396 23.868-.648 6.336-.144 8.531-.18 14.22-.647 5.58-.396 13.212-1.729 19.439-1.908 6.12-.072 11.952.36 17.496,1.296l-.323,5.725c2.987,2.52 6.228,3.636 9.863,3.491 3.564-.18 7.488-1.62 11.772-4.464l4.428-274.53499c-.216-.182-1.332-.506-3.492-.973-2.231-.469-5.363-.865-9.54-1.584l-1.908-2.557c-3.168-.072-5.579.145-7.632.648-2.052.611-3.491,1.332-4.464,2.557l.324,8.244c-16.056-.289-28.332-.613-37.224-1.262-8.929-.574-10.152-2.158-15.912-2.23-5.94.107-13.536,1.871-18.756,2.23-5.185.396-7.776-.07-12.097,0-4.464.217-9.144.434-14.328.938-.071,2.412-.144,4.428-.611,6.047-.504,1.729-1.008,2.916-1.908,3.852 .612-2.088.72-4.104.324-6.047-.504-1.908-1.332-3.672-2.88-5.436-5.977-.721-11.7-1.045-17.173-1.26-5.651-.145-10.728-.037-15.911.322 .611,1.836.827,3.529.647,5.076-.324,1.621-1.512,2.412-1.908,4.465-.396,2.195-.504,4.824-.323,8.279-.036-.719-.145-1.584-.324-2.879-.288-1.26-.792-2.844-.973-4.465-.216-1.439.288-3.203-.287-4.752-.648-1.584-.9-3.168-3.528-4.463-2.809-1.225-8.064-1.836-12.708-2.232-4.824-.252-12.132-.072-15.264.971-3.132,1.225-1.512,6.014-3.204,6.049-1.764.072-3.924-4.752-7.308-5.725-3.6-.898-8.856.361-13.68.324-4.824.072-9.756.072-14.94,0-.972,1.332-1.728,2.809-2.556,4.428-.828,1.729-1.296,5.473-2.232,5.4-1.188-.035-3.528-4.393-3.816-5.725-.18-1.15 2.988-.863 2.556-1.906-.576-1.01-1.368-3.781-5.724-4.43-4.5-.539-11.268-.07-20.7,1.262-.864,4.463-1.98,6.695-3.492,6.695-1.62-.037-3.204-5.363-5.724-6.695-2.556-1.225-2.124-.289-9.54-.648-7.667-.29-19.295-.504-35.568-.936-.648-1.945-2.268-3.061-5.4-3.492-3.06-.361-7.452.107-13.032,1.26l3.169,271.69099c1.62,1.044 3.24,1.656 4.464,2.232 1.188.612 2.376.792 3.168.936 .215,1.368.432,2.736.648,4.141zm-7.02-7.957c3.24-.612 6.3-.864 9.576-.612 3.168.324 7.272,1.332 9.54,2.196 2.232.972 3.456,1.944 3.816,3.204-.216-8.136-.648-22.933-1.584-45.504-1.08-22.645-2.268-50.328-3.852-88.74-1.512-38.34-3.204-84.09599-5.076-139.35499-2.088-1.152-4.284-1.836-6.984-1.908-2.736-.037-5.58.539-8.928,1.584 1.152,89.711 2.304,179.42399 3.492,269.13499zm14.003-267.55099c14.688.684 25.38,1.115 32.616,1.295 7.056.18 7.308-1.115 10.188,0 2.844,1.225 5.076,6.301 6.984,7.309 1.8,1.225 2.952.684 4.14-.648 1.152-1.225 1.908-3.6 2.556-6.984 4.5-.395 8.424-.611 11.772-.646 3.456-.037 6.588.18 8.28.646 1.368.686 1.08,2.088.936,2.844-.216.828-1.764.865-1.584,1.908 .18,1.297 1.728,3.492 2.844,4.789 1.08,1.295 2.628,3.023 3.816,2.555 1.008-.395 1.728-3.348 2.556-5.111 .828-1.729 1.476-3.527 2.232-5.4 6.048.252 11.196.361 15.588.324 4.356-.035 7.812-.791 10.512-.324 2.52.648 3.852,2.664 5.4,3.816 1.512,1.225 3.024,3.061 4.14,3.168 1.044.145 1.836-1.295 2.52-2.52 .576-1.152-1.116-3.385 1.296-4.465 2.376-1.008 8.892-1.295 13.032-1.26 4.104.217 8.785,1.225 11.52,2.197 2.664,1.008 3.457,1.584 4.465,3.814 .828,2.377.18,7.668.972,10.189 .756,2.592 1.872,4.248 3.492,5.111-.576-3.348-.685-6.084-.324-8.604 .288-2.377 1.584-4.068 2.232-6.049 .611-1.943.936-3.852 1.26-5.725 .576-.035 3.275-.035 7.956,0 4.716.072 11.304.182 20.052.324 1.404,1.656 2.412,3.564 3.168,5.725 .684,2.232 1.008,4.572.972,7.309 1.261-1.189 2.412-2.629 3.168-4.465 .828-1.836 1.261-3.816 1.584-6.336 11.988.072 21.601-.145 29.269-.648 7.596-.467 10.548-2.23 16.235-2.23 5.473.215 8.604,1.943 17.173,2.555 8.64.576 19.764.793 34.056.648l1.26,259.91999c-4.716-1.044-10.188-1.476-16.848-1.296-6.84.396-16.74,1.944-22.896,2.557-6.084.575-7.092.611-13.283.647-6.372.252-19.116.396-24.192,0-5.112-.468-4.86-1.512-6.048-2.556-1.26-.828-.433-1.044-1.26-2.88-1.009-1.836-3.313-5.185-4.141-7.956-.828-2.628.072-6.3-.647-7.956-.864-1.477-3.492-2.269-4.141-1.26-.792,1.115.181,5.004 0,7.632-.216,2.735-.54,6.191-1.26,8.279-.864,2.16-1.979,3.601-3.492,4.465-4.752,1.044-8.892,1.439-12.42,1.584-3.636.071-3.456-.721-8.892-.973-5.508-.144-15.769-.036-23.544.324-7.921.54-17.461,2.269-23.221,2.556-5.724.396-6.66-.144-11.16-.647-4.716-.576-11.052-1.836-16.524-2.232-5.688-.18-11.16.469-16.56.973-5.436.72-11.448,2.412-15.264,2.556-3.816.072-4.176-1.26-7.308-1.908-3.132-.504-6.948-.936-11.448-1.296-1.728-3.492-2.592-6.552-2.88-9.864-.288-3.204.144-6.228 1.296-9.216-2.952,3.204-4.968,5.652-6.048,7.632-1.224,1.944-.936,2.305-.648,4.141 .288,2.016.936,4.464 2.232,7.632-.936.612-3.528.899-7.632,1.26-4.284.36-12.276.72-17.172.648-4.932.036-8.676-.181-11.772-.648l-11.161-267.22899zm-5.723,273.92399-1.26-4.141-4.464-1.26c3.384-.144 6.516-.072 9.54.612 3.024.72 5.652,1.656 8.28,3.204-2.736,1.08-4.932,1.62-6.984,1.908s-3.708.18-5.112-.323zm327.996-276.15699c-1.8.936-3.924,1.477-6.66,1.619-2.88.18-6.624-.035-9.576-.646-2.952-.576-5.364-1.297-7.632-2.557 1.188-1.045 2.7-1.584 4.14-1.908 1.404-.252 3.132-.145 4.788.324l3.168,2.232c3.924.288 7.849.612 11.772.936zm-23.868.973c.396,26.135.72,61.164.972,106.88299 .181,45.973.288,100.152.324,165.744 .792,2.053 2.556,3.061 5.724,2.881 3.024-.181 7.309-1.404 12.708-3.816l4.141-270.10699c-4.176.971-7.884,1.547-11.124,1.584-3.492.035-6.408-.613-8.604-1.262-2.161-.575-3.493-1.081-4.141-1.907z" fill="#1a1a1a" fill-rule="evenodd" filter="url(#a)"/>
    <g transform="translate(.044491 -.0015259)">
      <path d="m11.466,283.574c2.268.36 4.68.36 7.632,0 2.88-.432 6.012-1.116 9.54-2.196l.324-3.815c3.42-.288 6.516-.396 9.864-.324 3.204.036 6.012.612 9.54.612 3.42-.217 8.208-1.008 11.448-1.261 3.276-.287 5.832-.396 7.956-.323 .252-.576.252-1.801 0-3.816-.324-2.124-1.728-5.904-1.584-8.28 .18-2.376.936-4.283 2.556-5.724-.72,2.052-1.044,3.996-.972,5.436 .036,1.404.792,1.404 1.296,3.492 .468,2.088.756,5.004 1.26,8.893 3.096.036 6.552.252 10.512.647 3.888.396 7.308,1.62 13.032,1.584 5.616-.288 15.336-2.16 20.988-2.556 5.688-.396 9.756-.288 12.744.324 3.42.828 7.524,1.403 12.708,1.584 5.22.107 12.456-.324 17.82-.612 5.076-.468 7.2-.9 13.032-1.296 5.796-.432 15.804-.972 21.96-.937 6.12.036 9.9,1.297 14.652,1.261 4.716-.108 9.036-.792 13.355-1.908 .288-.792.612-1.98 1.261-3.168 .575-1.296 1.836-2.232 2.231-4.464 .288-2.376-.612-7.956-.324-9.54 .252-1.656.648-1.765 1.584-.324-.575,2.844-.468,5.292.324,7.632 .756,2.269 3.061,4.284 4.14,6.048 .9,1.801-.323,3.24 1.584,4.464 1.872,1.116 3.853,1.62 9.54,1.908 5.544.181 17.389-.504 23.868-.647 6.3-.288 8.604-.216 14.256-.612 5.652-.468 13.141-1.908 19.404-1.944 6.12-.144 11.952.288 17.496,1.296l-.324,5.725c2.988,2.483 6.229,3.6 9.864,3.492 3.564-.217 7.488-1.656 11.772-4.465l4.464-274.536c-.181-.18-1.404-.504-3.528-.972-2.232-.468-5.364-.864-9.54-1.584l-1.908-2.556c-3.168-.072-5.58.144-7.632.647-2.052.612-3.492,1.332-4.464,2.557l.324,8.279c-16.057-.252-28.332-.684-37.225-1.296-8.928-.576-10.151-2.16-15.912-2.231-5.939.107-13.535,1.872-18.756,2.231-5.184.396-7.775-.071-12.096,0-4.464.181-9.18.504-14.292.973-.036,2.411-.252,4.428-.648,6.048-.504,1.655-1.008,2.88-1.907,3.815 .611-2.088.72-4.104.323-6.048-.504-1.872-1.332-3.672-2.88-5.399-5.976-.685-11.7-1.116-17.172-1.297-5.651-.144-10.728-.035-15.912.324 .612,1.836.828,3.528.648,5.076-.324,1.62-1.512,2.412-1.908,4.464-.396,2.196-.504,4.824-.324,8.28-.036-.72-.144-1.584-.323-2.88-.324-1.188-.685-2.809-.937-4.428-.18-1.477.18-3.169-.324-4.788-.684-1.513-.828-3.276-3.492-4.465-2.808-1.079-8.027-1.943-12.744-2.195-4.824-.252-12.132-.072-15.264.936-3.06,1.225-1.476,6.013-3.168,6.048-1.764.072-3.888-4.752-7.344-5.724-3.6-.9-8.856.36-13.68.324-4.824.071-9.756.071-14.94,0-.972,1.332-1.728,2.808-2.556,4.428-.828,1.656-1.296,5.544-2.232,5.437-1.188-.036-3.528-4.393-3.816-5.725-.18-1.224 2.988-.756 2.556-1.908-.576-1.08-1.368-3.815-5.724-4.464-4.534-.541-11.194-.073-20.662,1.259-.864,4.465-1.944,6.696-3.528,6.696-1.62-.036-3.204-5.364-5.724-6.696-2.556-1.151-2.124-.288-9.54-.611-7.668-.253-19.296-.577-35.568-.973-.648-1.943-2.268-3.06-5.4-3.491-3.06-.36-7.452.107-13.032,1.26l3.168,271.692c1.62,1.008 3.24,1.62 4.464,2.231 1.188.504 2.376.828 3.168.973 .216,1.367.432,2.735.648,4.103z" fill-rule="evenodd" stroke="#000" stroke-miterlimit="10" stroke-width=".036"/>
    </g>
    <path d="m3.49749,275.84547c-.108-35.208-.324-74.484-.792-119.916-.468-45.468-1.116-94.826-1.944-150.589 3.348-1.367 6.408-2.016 9.324-1.943 2.88.18 5.364,1.08 7.74,2.699l10.872,274.392c-1.8-.864-3.816-1.764-6.588-2.7-2.808-.792-6.588-2.447-9.684-2.735-3.096-.361-6.12,0-8.928.792z" fill="url(#d)" fill-rule="evenodd"/>
    <path d="m12.10149,282.57647-1.188-3.888-5.076-2.088c3.78-1.152 7.272-1.296 10.764-.576 3.42.864 6.696,2.376 9.828,5.076-2.772,1.368-5.4,2.16-7.74,2.376-2.484.325-4.536-.108-6.588-.9z" fill="#412318" fill-rule="evenodd"/>
    <path d="m28.84149,276.02447-11.376-269.315c6.66.322 12.348.719 17.64.898 5.22.324 9.144.434 13.428.613 4.176.287 8.748-.396 11.628.287 2.7.793 3.564,2.305 5.076,3.564 1.404,1.26 2.376,3.707 3.6,3.889 1.152.322 2.521-1.117 3.564-2.377 .936-1.225 1.584-2.916 2.088-5.076 4.176-.432 7.632-.684 10.764-.9 2.988-.18 5.472-.18 7.452,0 1.8.289 3.276.938 3.888,1.801 .54,1.115-.252,2.736-.288,3.889-.072,1.043-.72,1.979 0,2.951 .612,1.26 2.88,3.527 3.888,3.889 .864.359.9-1.117 1.476-2.088 .432-1.008.756-2.018 1.512-3.564 .648-1.404 1.584-2.953 2.664-4.789 3.132-.18 6.84-.18 11.124-.287 4.32-.072 10.944-.576 14.328,0 3.24.756 3.312,3.168 5.076,4.176 1.656,1.152 3.852,2.268 5.076,2.088 1.188-.252 1.008-2.123 1.8-3.275 .576-.936.252-1.98 2.088-2.701 1.764-.684 4.644-1.402 8.64-1.475 3.888.107 11.269.971 14.652,1.764 3.24.863 3.78,1.367 5.076,3.313 1.116,2.088 1.44,6.264 2.088,8.639 .612,2.449 1.44,4.248 2.088,5.689-.18-2.846-.036-5.293.288-7.488 .324-2.053 1.116-3.564 1.8-5.365 .648-1.836 1.116-3.492 1.801-5.363 5.832-.359 11.16-.469 16.128-.324 4.932.217 9.359.576 13.428,1.225 1.152,2.051 2.088,4.031 2.664,5.939 .612,2.016.864,3.816.9,5.688 1.619-1.619 2.771-3.311 3.312-5.076 .504-1.764.504-3.455 0-5.363 6.3.396 12.42.539 18.504.287 6.12-.215 12.96-.898 17.604-1.475 4.428-.469 5.615-1.477 8.964-1.512 3.204.143 7.056,1.26 10.439,1.799 3.204.541 4.068.936 9.54,1.188 5.652.289 17.496.686 23.292.613 5.544.035 8.784-.217 9.864-.613l.9,262.153c-2.772-.972-6.408-1.477-11.053-1.512-4.788.035-10.548,1.044-16.739,1.512-6.301.612-13.572,1.476-20.269,1.764-6.768.288-14.364.396-19.728.324-5.4.18-9.721.504-12.528,0-2.916-.432-3.636-1.764-4.788-3.313-1.26-1.584-1.548-3.708-2.376-5.976-.936-2.088-2.16-4.644-2.7-6.84-.576-2.088-.504-5.148-.899-5.977-.612-.611-1.729-.071-2.088,1.477-.288,1.656.18,5.544 0,7.776-.288,2.304-.937,3.924-1.801,5.688-.936,1.872-1.151,4.068-3.563,5.076-2.448,1.116-6.229,1.188-11.34,1.188-5.292,0-11.736-1.367-20.017-1.188-8.531.359-20.7,2.268-29.7,2.664-8.964.468-15.948-.324-23.58-.576-7.812-.216-15.408-1.548-22.104-1.224-6.66.468-12.996,3.096-17.604,3.312-4.68.145-6.588-1.476-10.44-2.088-3.996-.396-8.1-.648-12.852-.612-.72-3.636-1.368-6.479-1.8-8.676-.54-2.124-.936-2.916-.9-4.464 .072-1.548.432-3.24 1.224-5.076-2.592,1.404-4.14,2.952-4.788,4.788-.684,1.908.54,3.996.9,6.264 .324,2.305.72,4.788 1.188,7.452-4.608.648-9.108,1.044-14.04,1.188-5.004.252-11.196.252-15.228,0-4.068-.111-7.019-.399-8.855-.867z" fill-rule="evenodd" fill="url(#c)"/>
    <path d="m317.38149,279.58847c-.107-75.924-.107-135.323-.288-181.799-.216-46.152-.323-76.754-.611-93.457 2.664,1.908 5.256,3.203 8.063,3.889 2.7.756 5.437.576 8.353.287 2.844-.215 5.832-.863 8.964-1.799l-4.5,271.979c-3.276,1.872-6.012,3.168-8.353,3.888-2.34.937-3.852,1.008-5.651.612-1.909-.431-3.997-1.728-5.977-3.6z" fill-rule="evenodd" style="fill: url(#b);"/>
    <path d="m315.86949,4.61947c2.736,1.801 5.868,2.953 9.252,3.602s8.172.791 11.052.287c2.736-.396 4.681-1.295 5.688-2.699-1.44-.541-3.276-1.08-5.364-1.477-2.196-.396-4.644-.648-7.488-.9l-3.563-2.375c-2.196-.432-4.14-.289-5.688.287-1.693.613-2.845,1.656-3.889,3.275z" fill="#412318" fill-rule="evenodd"/>
    <path d="m11.56149,283.47747c2.268.396 4.68.396 7.632,0 2.88-.396 6.012-1.044 9.54-2.232l.324-3.815c3.42-.252 6.516-.36 9.864-.324 3.204.18 6.012.72 9.54.647 3.42-.18 8.208-.827 11.448-1.26 3.276-.252 5.832-.359 7.956-.324 .252-.54.252-1.764 0-3.815-.324-2.052-1.728-5.832-1.584-8.28 .18-2.304.936-4.212 2.556-5.724-.72,2.16-1.044,3.96-.972,5.399 .036,1.513.792,1.477 1.296,3.492 .468,2.124.756,5.004 1.26,8.928 3.096.072 6.552.288 10.512.648 3.888.504 7.308,1.728 13.032,1.584 5.616-.18 15.336-2.052 20.988-2.556 5.688-.36 9.756-.252 12.744.323 3.42.973 7.524,1.404 12.708,1.584 5.22.252 12.456-.287 17.82-.647 5.076-.396 7.2-.72 13.032-1.26 5.796-.36 15.805-.864 21.96-.937 6.12.108 9.9,1.404 14.652,1.26 4.716-.071 9.036-.756 13.356-1.907 .288-.9.611-1.836 1.26-3.204 .576-1.116 1.836-2.124 2.231-4.429 .288-2.304-.611-7.848-.323-9.54 .252-1.584.647-1.691 1.584-.323-.576,2.88-.469,5.328.323,7.632 .757,2.304 3.061,4.32 4.141,6.048 .899,1.872-.324,3.313 1.584,4.464 1.872,1.152 3.852,1.656 9.54,1.908 5.544.288 17.388-.396 23.868-.648 6.336-.144 8.531-.18 14.22-.647 5.58-.396 13.212-1.729 19.439-1.908 6.12-.072 11.952.36 17.496,1.296l-.323,5.725c2.987,2.52 6.228,3.636 9.863,3.491 3.564-.18 7.488-1.62 11.772-4.464l4.428-274.535c-.216-.182-1.332-.506-3.492-.973-2.231-.469-5.363-.865-9.54-1.584l-1.908-2.557c-3.168-.072-5.579.145-7.632.648-2.052.611-3.491,1.332-4.464,2.557l.324,8.244c-16.056-.289-28.332-.613-37.224-1.262-8.929-.574-10.152-2.158-15.912-2.23-5.94.107-13.536,1.871-18.756,2.23-5.185.396-7.776-.07-12.097,0-4.464.217-9.144.434-14.328.938-.071,2.412-.144,4.428-.611,6.047-.504,1.729-1.008,2.916-1.908,3.852 .612-2.088.72-4.104.324-6.047-.504-1.908-1.332-3.672-2.88-5.436-5.977-.721-11.7-1.045-17.173-1.26-5.651-.145-10.728-.037-15.911.322 .611,1.836.827,3.529.647,5.076-.324,1.621-1.512,2.412-1.908,4.465-.396,2.195-.504,4.824-.323,8.279-.036-.719-.145-1.584-.324-2.879-.288-1.26-.792-2.844-.973-4.465-.216-1.439.288-3.203-.287-4.752-.648-1.584-.9-3.168-3.528-4.463-2.809-1.225-8.064-1.836-12.708-2.232-4.824-.252-12.132-.072-15.264.971-3.132,1.225-1.512,6.014-3.204,6.049-1.764.072-3.924-4.752-7.308-5.725-3.6-.898-8.856.361-13.68.324-4.824.072-9.756.072-14.94,0-.972,1.332-1.728,2.809-2.556,4.428-.828,1.729-1.296,5.473-2.232,5.4-1.188-.035-3.528-4.393-3.816-5.725-.18-1.15 2.988-.863 2.556-1.906-.576-1.01-1.368-3.781-5.724-4.43-4.5-.539-11.268-.07-20.7,1.262-.864,4.463-1.98,6.695-3.492,6.695-1.62-.037-3.204-5.363-5.724-6.695-2.556-1.225-2.124-.289-9.54-.648-7.667-.29-19.295-.504-35.568-.936-.648-1.945-2.268-3.061-5.4-3.492-3.06-.361-7.452.107-13.032,1.26l3.169,271.691c1.62,1.044 3.24,1.656 4.464,2.232 1.188.612 2.376.792 3.168.936 .215,1.368.432,2.736.648,4.141zm-7.02-7.957c3.24-.612 6.3-.864 9.576-.612 3.168.324 7.272,1.332 9.54,2.196 2.232.972 3.456,1.944 3.816,3.204-.216-8.136-.648-22.933-1.584-45.504-1.08-22.645-2.268-50.328-3.852-88.74-1.512-38.34-3.204-84.096-5.076-139.355-2.088-1.152-4.284-1.836-6.984-1.908-2.736-.037-5.58.539-8.928,1.584 1.152,89.711 2.304,179.424 3.492,269.135zm14.003-267.551c14.688.684 25.38,1.115 32.616,1.295 7.056.18 7.308-1.115 10.188,0 2.844,1.225 5.076,6.301 6.984,7.309 1.8,1.225 2.952.684 4.14-.648 1.152-1.225 1.908-3.6 2.556-6.984 4.5-.395 8.424-.611 11.772-.646 3.456-.037 6.588.18 8.28.646 1.368.686 1.08,2.088.936,2.844-.216.828-1.764.865-1.584,1.908 .18,1.297 1.728,3.492 2.844,4.789 1.08,1.295 2.628,3.023 3.816,2.555 1.008-.395 1.728-3.348 2.556-5.111 .828-1.729 1.476-3.527 2.232-5.4 6.048.252 11.196.361 15.588.324 4.356-.035 7.812-.791 10.512-.324 2.52.648 3.852,2.664 5.4,3.816 1.512,1.225 3.024,3.061 4.14,3.168 1.044.145 1.836-1.295 2.52-2.52 .576-1.152-1.116-3.385 1.296-4.465 2.376-1.008 8.892-1.295 13.032-1.26 4.104.217 8.785,1.225 11.52,2.197 2.664,1.008 3.457,1.584 4.465,3.814 .828,2.377.18,7.668.972,10.189 .756,2.592 1.872,4.248 3.492,5.111-.576-3.348-.685-6.084-.324-8.604 .288-2.377 1.584-4.068 2.232-6.049 .611-1.943.936-3.852 1.26-5.725 .576-.035 3.275-.035 7.956,0 4.716.072 11.304.182 20.052.324 1.404,1.656 2.412,3.564 3.168,5.725 .684,2.232 1.008,4.572.972,7.309 1.261-1.189 2.412-2.629 3.168-4.465 .828-1.836 1.261-3.816 1.584-6.336 11.988.072 21.601-.145 29.269-.648 7.596-.467 10.548-2.23 16.235-2.23 5.473.215 8.604,1.943 17.173,2.555 8.64.576 19.764.793 34.056.648l1.26,259.92c-4.716-1.044-10.188-1.476-16.848-1.296-6.84.396-16.74,1.944-22.896,2.557-6.084.575-7.092.611-13.283.647-6.372.252-19.116.396-24.192,0-5.112-.468-4.86-1.512-6.048-2.556-1.26-.828-.433-1.044-1.26-2.88-1.009-1.836-3.313-5.185-4.141-7.956-.828-2.628.072-6.3-.647-7.956-.864-1.477-3.492-2.269-4.141-1.26-.792,1.115.181,5.004 0,7.632-.216,2.735-.54,6.191-1.26,8.279-.864,2.16-1.979,3.601-3.492,4.465-4.752,1.044-8.892,1.439-12.42,1.584-3.636.071-3.456-.721-8.892-.973-5.508-.144-15.769-.036-23.544.324-7.921.54-17.461,2.269-23.221,2.556-5.724.396-6.66-.144-11.16-.647-4.716-.576-11.052-1.836-16.524-2.232-5.688-.18-11.16.469-16.56.973-5.436.72-11.448,2.412-15.264,2.556-3.816.072-4.176-1.26-7.308-1.908-3.132-.504-6.948-.936-11.448-1.296-1.728-3.492-2.592-6.552-2.88-9.864-.288-3.204.144-6.228 1.296-9.216-2.952,3.204-4.968,5.652-6.048,7.632-1.224,1.944-.936,2.305-.648,4.141 .288,2.016.936,4.464 2.232,7.632-.936.612-3.528.899-7.632,1.26-4.284.36-12.276.72-17.172.648-4.932.036-8.676-.181-11.772-.648l-11.161-267.229zm-5.723,273.924-1.26-4.141-4.464-1.26c3.384-.144 6.516-.072 9.54.612 3.024.72 5.652,1.656 8.28,3.204-2.736,1.08-4.932,1.62-6.984,1.908s-3.708.18-5.112-.323zm327.996-276.157c-1.8.936-3.924,1.477-6.66,1.619-2.88.18-6.624-.035-9.576-.646-2.952-.576-5.364-1.297-7.632-2.557 1.188-1.045 2.7-1.584 4.14-1.908 1.404-.252 3.132-.145 4.788.324l3.168,2.232c3.924.288 7.849.612 11.772.936zm-23.868.973c.396,26.135.72,61.164.972,106.883 .181,45.973.288,100.152.324,165.744 .792,2.053 2.556,3.061 5.724,2.881 3.024-.181 7.309-1.404 12.708-3.816l4.141-270.107c-4.176.971-7.884,1.547-11.124,1.584-3.492.035-6.408-.613-8.604-1.262-2.161-.575-3.493-1.081-4.141-1.907z" fill-rule="evenodd"/>
  </g>
  <g transform="matrix(0.085965, 0, 0, 0.085965, 712.346812, -64.270577)" style="">
    <path d="m363.02 587.02a91 93 0 1 1 -182 0" fill="#555753" opacity=".134" stroke-linecap="round" stroke-linejoin="bevel" stroke-width="12"/>
    <g fill="#7f003f" opacity=".92">
      <g stroke-width="8">
        <path d="m359.9 587.54a93.952 93.952 0 1 1 -187.9 0" opacity=".655"/>
        <path d="m264.83 497.83c-47.038 0-85.213 38.176-85.213 85.213 0 36.584 23.094 67.793 55.489 79.863-17.109-15.589-27.853-38.022-27.853-62.974 0-47.038 38.176-85.213 85.213-85.213 10.453 0 20.468 1.8768 29.724 5.3259-15.144-13.798-35.275-22.215-57.361-22.215z"/>
        <path d="m311.8 517.86c0.16077 0.19977 0.32123 0.39203 0.48013 0.5932 23.173 18.446 36.082 48.474 31.209 79.817-7.2259 46.479-50.82 78.344-97.3 71.118-9.9174-1.5418-19.161-4.7645-27.509-9.2921 10.892 8.2782 23.924 14.077 38.383 16.325 46.479 7.2258 90.074-24.638 97.3-71.118 5.62-36.15-12.407-70.539-42.563-87.443z" filter="url(#filter-1)"/>
      </g>
      <path d="m313.92 541.88a14.461 15.365 0 1 1 -28.922 0" opacity=".813" stroke-linecap="round" stroke-linejoin="bevel"/>
    </g>
    <g fill="#7f003f" stroke-width="8">
      <path d="m383.93 376.92a71.052 71.052 0 1 1 -142.1 0" opacity=".655"/>
      <path d="m310.05 313.02c-35.573 0-64.443 28.87-64.443 64.443 0 27.667 17.465 51.269 41.964 60.397-12.939-11.789-21.064-28.754-21.064-47.625 0-35.573 28.87-64.443 64.443-64.443 7.9053 0 15.479 1.4194 22.479 4.0277-11.453-10.435-26.677-16.8-43.379-16.8z"/>
      <path d="m345.57 328.17c0.12158 0.15103 0.24292 0.29642 0.3631 0.44855 17.525 13.95 27.287 36.658 23.602 60.362-5.4646 35.15-38.433 59.248-73.584 53.783-7.5001-1.166-14.491-3.6032-20.804-7.0273 8.2375 6.2605 18.093 10.646 29.028 12.346 35.15 5.4646 68.119-18.633 73.584-53.783 4.2502-27.339-9.383-53.346-32.189-66.129z" filter="url(#filter-1)"/>
      <path d="m327.93 304.62a71.052 71.052 0 1 1 -142.1 0" opacity=".655"/>
      <path d="m256.03 236.78c-35.573 0-64.443 28.87-64.443 64.443 0 27.667 17.465 51.269 41.964 60.397-12.939-11.789-21.064-28.754-21.064-47.625 0-35.573 28.87-64.443 64.443-64.443 7.9053 0 15.479 1.4193 22.479 4.0277-11.453-10.435-26.677-16.8-43.379-16.8z"/>
      <path d="m291.55 251.92c0.12155 0.15103 0.24289 0.29642 0.3631 0.44855 17.525 13.95 27.287 36.658 23.602 60.362-5.4646 35.15-38.433 59.248-73.584 53.783-7.5001-1.166-14.491-3.6032-20.804-7.0273 8.2375 6.2605 18.093 10.646 29.028 12.346 35.15 5.4646 68.119-18.633 73.584-53.783 4.2502-27.339-9.383-53.346-32.189-66.129z" filter="url(#filter-1)"/>
      <path d="m316.08 462.62a71.052 71.052 0 1 1 -142.1 0" opacity=".655"/>
      <path d="m244.18 394.77c-35.573 0-64.443 28.87-64.443 64.443 0 27.667 17.465 51.269 41.964 60.397-12.939-11.789-21.064-28.754-21.064-47.625 0-35.573 28.87-64.443 64.443-64.443 7.9053 0 15.479 1.4193 22.479 4.0277-11.453-10.435-26.677-16.8-43.379-16.8z"/>
      <path d="m279.7 409.92c0.12158 0.15103 0.24292 0.29642 0.3631 0.44855 17.525 13.95 27.287 36.658 23.602 60.362-5.4646 35.15-38.433 59.248-73.584 53.783-7.5001-1.166-14.491-3.6032-20.804-7.0273 8.2375 6.2604 18.093 10.646 29.028 12.346 35.15 5.4646 68.119-18.633 73.584-53.783 4.2502-27.339-9.383-53.346-32.189-66.129z" filter="url(#filter-1)"/>
      <path d="m424 428.09a71.052 71.052 0 1 1 -142.1 0" opacity=".655"/>
      <path d="m352.1 360.25c-35.573 0-64.443 28.87-64.443 64.443 0 27.667 17.465 51.269 41.964 60.397-12.939-11.789-21.064-28.754-21.064-47.625 0-35.573 28.87-64.443 64.443-64.443 7.9053 0 15.479 1.4194 22.479 4.0277-11.453-10.435-26.677-16.8-43.379-16.8z"/>
      <path d="m387.62 375.39c0.12158 0.15103 0.24295 0.29642 0.3631 0.44855 17.525 13.95 27.287 36.658 23.602 60.362-5.4646 35.15-38.433 59.248-73.584 53.783-7.5001-1.166-14.491-3.6032-20.804-7.0273 8.2375 6.2604 18.093 10.646 29.028 12.346 35.15 5.4646 68.119-18.633 73.584-53.783 4.2502-27.339-9.383-53.346-32.189-66.129z" filter="url(#filter-1)"/>
    </g>
    <g fill="#7f003f">
      <g stroke-width="8">
        <path d="m401.9 357.54a92.952 92.952 0 1 1 -185.9 0" opacity=".655"/>
        <path d="m307.84 268.79c-46.537 0-84.306 37.769-84.306 84.306 0 36.195 22.848 67.071 54.899 79.013-16.927-15.423-27.556-37.617-27.556-62.304 0-46.537 37.769-84.306 84.306-84.306 10.342 0 20.25 1.8569 29.408 5.2691-14.983-13.651-34.9-21.978-56.75-21.978z"/>
        <path d="m354.31 288.6c0.15903 0.1976 0.31778 0.38779 0.47501 0.58679 22.926 18.25 35.698 47.958 30.877 78.967-7.1489 45.985-50.28 77.51-96.264 70.361-9.8119-1.5253-18.957-4.7138-27.217-9.1933 10.776 8.1901 23.669 13.927 37.975 16.151 45.985 7.1489 89.115-24.376 96.264-70.361 5.5602-35.766-12.275-69.788-42.11-86.512z" filter="url(#filter-1)"/>
      </g>
      <path d="m356.41 312.36a14.307 15.201 0 1 1 -28.614 0" opacity=".813" stroke-linecap="round" stroke-linejoin="bevel"/>
    </g>
    <g fill="#7f003f">
      <path d="m122.28 394.2a12.46 13.239 0 1 1 -24.92 0" opacity=".813" stroke-linecap="round" stroke-linejoin="bevel"/>
      <g stroke-width="8">
        <path d="m161.9 433.54a80.952 80.952 0 1 1 -161.9 0" opacity=".655"/>
        <path d="m79.986 356.25c-40.529 0-73.422 32.893-73.422 73.422 0 31.522 19.899 58.412 47.811 68.813-14.742-13.432-23.999-32.761-23.999-54.261 0-40.529 32.893-73.422 73.422-73.422 9.0068 0 17.636 1.6172 25.611 4.5889-13.048-11.889-30.394-19.141-49.424-19.141z"/>
        <path d="m122.45 375.5c0.13848 0.17206 0.27674 0.33771 0.4137 0.51105 19.966 15.894 31.089 41.766 26.891 68.773-6.226 40.048-43.788 67.503-83.837 61.277-8.5452-1.3284-16.51-4.1052-23.703-8.0064 9.3853 7.1328 20.614 12.129 33.072 14.066 40.048 6.226 77.611-21.229 83.837-61.277 4.8424-31.148-10.69-60.778-36.674-75.343z" filter="url(#filter-1)"/>
      </g>
    </g>
    <g fill="#7f003f">
      <g stroke-width="8">
        <path d="m557.9 338.54a103.95 103.95 0 1 1 -207.9 0" opacity=".655"/>
        <path d="m452.71 239.29c-52.044 0-94.283 42.239-94.283 94.283 0 40.478 25.552 75.008 61.395 88.364-18.93-17.248-30.817-42.069-30.817-69.677 0-52.044 42.239-94.283 94.283-94.283 11.566 0 22.646 2.0766 32.888 5.8927-16.756-15.266-39.03-24.579-63.466-24.579z"/>
        <path d="m504.68 261.44c0.17783 0.22098 0.35535 0.43366 0.53125 0.65625 25.639 20.41 39.923 53.633 34.531 88.312-7.9949 51.426-56.23 86.682-107.66 78.688-10.973-1.7059-21.201-5.2717-30.438-10.281 12.052 9.1593 26.47 15.575 42.469 18.062 51.426 7.9949 99.661-27.261 107.66-78.688 6.2182-39.998-13.728-78.047-47.094-96.75z" filter="url(#filter-1)"/>
      </g>
      <path d="m507.02 288.02a16 17 0 1 1 -32 0" opacity=".813" stroke-linecap="round" stroke-linejoin="bevel"/>
    </g>
    <g fill="#7f003f">
      <g stroke-width="8">
        <path d="m214.9 516.54a89.952 89.952 0 1 1 -179.9 0" opacity=".655"/>
        <path d="m123.88 430.65c-45.035 0-81.585 36.55-81.585 81.585 0 35.027 22.111 64.906 53.127 76.463-16.381-14.925-26.667-36.403-26.667-60.293 0-45.035 36.55-81.585 81.585-81.585 10.008 0 19.596 1.7969 28.458 5.0991-14.499-13.21-33.773-21.269-54.918-21.269z"/>
        <path d="m168.84 449.82c0.15393 0.19119 0.30756 0.37524 0.4597 0.56784 22.186 17.661 34.546 46.41 29.881 76.419-6.9182 44.5-48.657 75.008-93.157 68.09-9.4951-1.4761-18.345-4.5617-26.338-8.8965 10.429 7.9258 22.906 13.478 36.749 15.63 44.5 6.9182 86.239-23.59 93.157-68.09 5.3808-34.611-11.879-67.536-40.751-83.72z" filter="url(#filter-1)"/>
      </g>
      <path d="m170.88 472.82a13.845 14.71 0 1 1 -27.69 0" opacity=".813" stroke-linecap="round" stroke-linejoin="bevel"/>
    </g>
    <g fill="#7f003f">
      <g stroke-width="8">
        <path d="m260.9 693.54a86.952 86.952 0 1 1 -173.9 0" opacity=".655"/>
        <path d="m172.91 610.52c-43.533 0-78.864 35.331-78.864 78.864 0 33.859 21.374 62.742 51.355 73.913-15.835-14.427-25.777-35.189-25.777-58.282 0-43.533 35.331-78.864 78.864-78.864 9.6744 0 18.943 1.737 27.509 4.929-14.016-12.77-32.647-20.56-53.087-20.56z"/>
        <path d="m216.38 629.05c0.14876 0.18481 0.29727 0.36273 0.44435 0.54895 21.446 17.072 33.394 44.862 28.884 73.87-6.6874 43.016-47.034 72.506-90.05 65.819-9.1785-1.4269-17.734-4.4096-25.46-8.5998 10.081 7.6614 22.142 13.028 35.524 15.109 43.016 6.6874 83.363-22.803 90.05-65.819 5.2013-33.457-11.483-65.283-39.392-80.928z" filter="url(#filter-1)"/>
      </g>
      <path d="m218.34 651.28a13.383 14.22 0 1 1 -26.767 0" opacity=".813" stroke-linecap="round" stroke-linejoin="bevel"/>
    </g>
    <g fill="#7f003f">
      <g stroke-width="8">
        <path d="m275.9 338.54a103.95 103.95 0 1 1 -207.9 0" opacity=".655"/>
        <path d="m170.71 239.29c-52.044 0-94.283 42.239-94.283 94.283 0 40.478 25.552 75.008 61.396 88.364-18.93-17.248-30.817-42.069-30.817-69.677 0-52.044 42.239-94.283 94.283-94.283 11.566 0 22.646 2.0766 32.888 5.8927-16.756-15.266-39.03-24.579-63.466-24.579z"/>
        <path d="m222.68 261.44c0.17783 0.22098 0.35536 0.43366 0.53124 0.65625 25.639 20.41 39.923 53.633 34.531 88.312-7.9949 51.426-56.23 86.682-107.66 78.688-10.973-1.7059-21.201-5.2717-30.438-10.281 12.052 9.1593 26.47 15.575 42.469 18.062 51.427 7.9949 99.661-27.261 107.66-78.688 6.2182-39.998-13.728-78.047-47.094-96.75z" filter="url(#filter-1)"/>
      </g>
      <path d="m225.02 288.02a16 17 0 1 1 -32 0" opacity=".813" stroke-linecap="round" stroke-linejoin="bevel"/>
    </g>
    <g fill="#7f003f">
      <g stroke-width="8">
        <path d="m496.9 494.54a103.95 103.95 0 1 1 -207.9 0" opacity=".655"/>
        <path d="m391.71 395.29c-52.044 0-94.283 42.239-94.283 94.283 0 40.478 25.552 75.008 61.395 88.364-18.93-17.248-30.817-42.069-30.817-69.677 0-52.044 42.239-94.283 94.283-94.283 11.566 0 22.646 2.0766 32.888 5.8927-16.756-15.266-39.03-24.579-63.466-24.579z"/>
        <path d="m443.68 417.44c0.17783 0.22101 0.35535 0.43368 0.53125 0.65625 25.639 20.41 39.923 53.633 34.531 88.312-7.9949 51.426-56.23 86.682-107.66 78.688-10.973-1.7059-21.201-5.2717-30.438-10.281 12.052 9.1592 26.47 15.575 42.469 18.062 51.426 7.9949 99.661-27.261 107.66-78.687 6.2182-39.998-13.728-78.047-47.094-96.75z" filter="url(#filter-1)"/>
      </g>
      <path d="m446.02 444.02a16 17 0 1 1 -32 0" opacity=".813" stroke-linecap="round" stroke-linejoin="bevel"/>
    </g>
    <path d="m261.87 0s-40.086 110.2-33.938 158.41c4.2553 33.363 42.481 74.853 50.25 100.22-18.688 49.077-66.963 55.485-107.06 64.75-2.73 2.3481-1.6076 9.3905 0.90619 11.969 63.298-6.273 86.808-30.561 112.09-65.25 3.3479 12.865 28.55 41.286 30.406 58.875 1.4022 13.286-14.46 28.57-24.875 36.938-12.529-1.843-82.641 20.927-97.656 38.5-2.3375 2.7358 2.2561 14.042 4.4062 11.156 9.5967-12.879 64.985-39.868 81.438-32.125-8.9706 14.431-31.024 54.488-39.531 58.719-9.6586-0.71374-122.76-32.406-159.28-21.156-3.444 1.0608-8.2704 8.5434-1.5938 11.906 34.038-6.4262 82.346 0.88257 94.25 12.5-5.7133 5.5729-35.094 64.969-35.094 64.969l10.562 5.6875s16.304-58.279 37.25-68.969c12.164-5.3275 9.2019-5.2438 46.438 6.1562 1.7251 8.2198-37.06 60.974-54.344 80.656-34.027 38.748-18.691 112.64-16.563 171.09 0.13199 3.6032 12.291 4.6849 11.969 1.0938-2.3121-47.504-29.684-155.42 30.412-185.02 7.8046 5.6837 49.049 60.069 75.406 62.188 3.5867-0.34796 7.973-5.6946 7.625-9.2812-30.795-15.735-75.906-42.745-76.281-62.906 5.3665-16.394 51.65-80.729 51.65-80.729l0.4063 0.3438c61.934-34.809 124.45-67.283 115.41 30.438 3.1477 1.7455 9.7857-0.1648 11.531-3.3125 9.6589-105.43-49.927-77.104-113.94-47.375 0 0 52.627-51.534 54.312-80.656 0.56287-9.7241-11.243-23.905-13.846-31.319 55.651-37.778 95.378-13.123 135.84 24.069 2.8969 2.136 8.1837-5.3759 7.9688-8.9688-54.63-49.562-105.05-43.621-150.56-23.625-23.385-27.444-47.039-86.53-52.901-130.42-6.348-47.529 41.31-142.14 41.31-142.14l-34.377-17.38z" fill="#7f7f00" fill-rule="evenodd" opacity=".93" stroke-width="12"/>
  </g>
</svg>