<?xml version="1.0" encoding="utf-8"?>
<svg viewBox="-131.473 173.738 1210.531 169.364" width="1210.531" height="169.364" xmlns="http://www.w3.org/2000/svg">
  <ellipse style="fill: none;" cx="-125.103" cy="315.729" rx="1.202" ry="0.138"/>
  <g transform="matrix(4.451507, 0, 0, 0.572991, -432.670173, -425.354956)" style="">
    <path d="M 69.529 1328.981 C 67.679 1009.424 70.734 1132.462 69.093 1054.995 C 69.004 1050.81 86.835 1054.312 89.715 1054.995 C 92.415 1055.788 92.191 1062.512 93.234 1061.252 C 94.17 1060.027 94.596 1057.155 95.1 1054.995 C 99.276 1054.563 102.732 1055.211 105.864 1054.995 C 108.852 1054.815 111.558 1054.815 113.538 1054.995 C 115.338 1055.284 118.283 1060.229 119.291 1060.591 C 120.155 1060.95 121.926 1071.025 122.502 1070.054 C 122.934 1069.046 123.019 1061.538 123.775 1059.992 C 124.423 1058.588 124.82 1056.831 125.9 1054.995 C 129.032 1054.815 133.074 1055.102 137.358 1054.995 C 141.678 1054.923 171.147 1055.068 175.143 1054.995 C 179.031 1055.102 185.297 1055.505 188.68 1056.298 C 191.92 1057.161 192.398 1055.743 193.694 1057.689 C 194.81 1059.777 196.089 1059.663 196.737 1062.038 C 197.349 1064.487 197.697 1065.021 198.345 1066.462 C 198.942 1056.799 200.44 1062.873 201.124 1061.072 C 201.772 1059.236 203.06 1056.866 203.745 1054.995 C 209.577 1054.636 213.688 1054.85 218.656 1054.995 C 223.588 1055.212 227.864 1054.346 231.933 1054.995 C 233.085 1057.046 234.247 1066.348 234.823 1068.256 C 235.435 1070.272 235.687 1072.072 235.723 1073.944 C 237.342 1072.325 238.494 1070.633 239.035 1068.868 C 239.539 1067.104 241.685 1056.903 241.181 1054.995 C 247.481 1055.391 330.663 1045.554 338.664 1054.995 L 338.664 1334.231 C 335.639 1331.63 96.932 1329.56 92.18 1329.596 C 92.154 1329.596 89.91 1325.859 90.702 1324.023 C 88.11 1325.427 85.651 1326.24 85.728 1328.535 C 85.954 1335.241 69.585 1338.603 69.529 1328.981 Z" fill-rule="evenodd" style="stroke-miterlimit: 1; stroke: rgb(91, 53, 9); stroke-linejoin: round; paint-order: fill; fill: rgb(255, 233, 176); stroke-width: 8px; vector-effect: non-scaling-stroke; stroke-linecap: round;"/>
  </g>
</svg>